<svg id="svg" xmlns="http://www.w3.org/2000/svg" xmlns:xlink="http://www.w3.org/1999/xlink" width="400" height="60" viewBox="0, 0, 400,60"><g id="svgg"><path id="path0" d="M29.204 3.496 C 28.833 3.879,28.207 4.296,27.814 4.424 C 23.917 5.684,21.200 9.254,21.200 13.114 L 21.200 14.392 19.950 13.711 C 16.751 11.968,13.020 12.333,9.800 14.705 C 8.975 15.313,7.961 15.913,7.547 16.038 C 6.815 16.259,6.798 16.285,6.941 16.983 C 7.113 17.826,7.110 18.146,6.908 20.400 C 6.583 24.027,8.297 27.391,11.364 29.143 L 12.405 29.737 11.611 30.095 C 8.617 31.445,6.546 35.396,6.905 39.072 C 7.113 41.192,7.117 41.559,6.941 42.417 C 6.796 43.126,6.805 43.138,7.639 43.388 C 8.104 43.527,8.990 44.030,9.608 44.506 C 12.836 46.990,16.486 47.422,19.850 45.720 L 21.200 45.037 21.200 46.325 C 21.200 49.965,23.443 53.086,27.200 54.675 C 27.915 54.977,28.838 55.493,29.250 55.822 L 30.000 56.419 30.751 55.815 C 31.164 55.483,32.082 54.976,32.791 54.688 C 36.478 53.190,38.800 49.958,38.800 46.325 L 38.800 45.037 40.150 45.720 C 43.514 47.422,47.164 46.990,50.392 44.506 C 51.010 44.030,51.896 43.527,52.361 43.388 C 53.195 43.138,53.204 43.126,53.059 42.417 C 52.883 41.559,52.887 41.192,53.095 39.072 C 53.454 35.396,51.383 31.445,48.389 30.095 L 47.595 29.737 48.619 29.152 C 51.686 27.401,53.416 24.015,53.092 20.400 C 52.890 18.146,52.887 17.826,53.059 16.983 C 53.202 16.285,53.185 16.259,52.453 16.038 C 52.039 15.913,51.025 15.313,50.200 14.705 C 46.980 12.333,43.249 11.968,40.050 13.711 L 38.800 14.392 38.800 13.133 C 38.800 9.240,36.105 5.691,32.186 4.424 C 31.793 4.296,31.167 3.879,30.796 3.496 C 30.425 3.113,30.067 2.800,30.000 2.800 C 29.933 2.800,29.575 3.113,29.204 3.496 M25.921 17.100 C 27.505 21.949,28.715 24.000,29.990 24.000 C 31.298 24.000,31.831 23.187,33.501 18.650 C 34.746 15.267,34.557 15.568,35.222 15.911 C 35.996 16.312,36.031 16.192,33.939 20.399 C 31.876 24.548,31.568 24.900,30.000 24.900 C 28.432 24.900,28.124 24.548,26.061 20.399 C 23.977 16.208,24.008 16.313,24.750 15.925 C 25.392 15.588,25.444 15.641,25.921 17.100 M23.899 21.555 C 26.535 25.451,26.770 26.142,25.868 27.349 C 24.778 28.809,24.095 28.894,18.000 28.331 L 15.500 28.100 15.434 27.526 C 15.344 26.738,15.566 26.588,16.500 26.805 C 18.247 27.211,23.297 27.826,23.921 27.709 C 26.472 27.231,25.768 25.247,21.112 19.792 L 20.180 18.700 20.612 18.350 C 21.316 17.780,21.398 17.860,23.899 21.555 M39.388 18.350 L 39.820 18.700 38.888 19.792 C 34.232 25.247,33.528 27.231,36.079 27.709 C 36.703 27.826,41.753 27.211,43.500 26.805 C 44.434 26.588,44.656 26.738,44.566 27.526 L 44.500 28.100 42.000 28.331 C 35.905 28.894,35.222 28.809,34.132 27.349 C 33.230 26.142,33.465 25.451,36.101 21.555 C 38.602 17.860,38.684 17.780,39.388 18.350 M57.203 18.050 C 57.205 18.078,60.471 22.780,64.461 28.500 L 71.716 38.900 74.458 38.956 C 75.966 38.986,77.200 38.960,77.200 38.897 C 77.200 38.834,75.551 36.424,73.536 33.541 C 71.520 30.659,68.912 26.927,67.740 25.250 L 65.609 22.200 69.804 22.200 L 74.000 22.200 74.000 26.400 L 74.000 30.600 76.200 30.600 L 78.400 30.600 78.400 24.300 L 78.400 18.000 67.800 18.000 C 61.970 18.000,57.201 18.023,57.203 18.050 M96.759 19.443 L 96.700 20.887 88.359 26.693 L 80.018 32.500 80.009 35.750 L 80.000 39.000 82.200 39.000 L 84.400 39.000 84.400 37.009 L 84.400 35.018 90.550 30.728 L 96.700 26.438 96.753 32.719 L 96.806 39.000 99.003 39.000 L 101.200 39.000 101.200 28.500 L 101.200 18.000 99.009 18.000 L 96.818 18.000 96.759 19.443 M102.800 28.500 L 102.800 39.000 105.550 38.995 L 108.300 38.990 114.119 30.645 L 119.939 22.300 124.069 22.246 L 128.200 22.192 128.200 20.093 L 128.200 17.994 122.759 18.047 L 117.318 18.100 112.309 25.275 L 107.300 32.450 107.248 25.225 L 107.195 18.000 104.998 18.000 L 102.800 18.000 102.800 28.500 M129.804 25.450 L 129.808 32.900 134.193 35.950 L 138.578 39.000 144.789 39.000 L 151.000 39.000 151.000 28.500 L 151.000 18.000 148.800 18.000 L 146.600 18.000 146.600 26.400 L 146.600 34.800 143.550 34.798 L 140.500 34.795 137.400 32.642 L 134.300 30.489 134.247 24.244 L 134.194 18.000 131.997 18.000 L 129.800 18.000 129.804 25.450 M152.600 28.500 L 152.600 39.000 154.798 39.000 L 156.995 39.000 157.048 31.790 L 157.100 24.580 162.102 31.740 L 167.105 38.900 169.852 38.956 C 171.364 38.986,172.600 38.960,172.600 38.897 C 172.600 38.834,170.951 36.424,168.936 33.541 C 166.920 30.659,164.312 26.927,163.140 25.250 L 161.009 22.200 165.204 22.200 L 169.400 22.200 169.400 26.400 L 169.400 30.600 171.600 30.600 L 173.800 30.600 173.800 24.300 L 173.800 18.000 163.200 18.000 L 152.600 18.000 152.600 28.500 M192.159 19.443 L 192.100 20.887 183.759 26.693 L 175.418 32.500 175.409 35.750 L 175.400 39.000 177.600 39.000 L 179.800 39.000 179.800 37.009 L 179.800 35.018 185.950 30.728 L 192.100 26.438 192.153 32.719 L 192.206 39.000 194.403 39.000 L 196.600 39.000 196.600 28.500 L 196.600 18.000 194.409 18.000 L 192.218 18.000 192.159 19.443 M209.200 24.300 L 209.200 30.600 211.400 30.600 L 213.600 30.600 213.600 24.300 L 213.600 18.000 211.400 18.000 L 209.200 18.000 209.200 24.300 M219.600 26.400 L 219.600 34.800 214.400 34.800 L 209.200 34.800 209.200 36.900 L 209.200 39.000 221.900 39.000 L 234.600 39.000 234.600 36.900 L 234.600 34.800 229.300 34.800 L 224.000 34.800 224.000 26.400 L 224.000 18.000 221.800 18.000 L 219.600 18.000 219.600 26.400 M230.200 24.300 L 230.200 30.600 232.400 30.600 L 234.600 30.600 234.600 24.300 L 234.600 18.000 232.400 18.000 L 230.200 18.000 230.200 24.300 M236.200 20.100 L 236.200 22.200 238.400 22.200 L 240.600 22.200 240.600 20.100 L 240.600 18.000 238.400 18.000 L 236.200 18.000 236.200 20.100 M250.339 18.650 C 249.847 19.315,236.533 38.423,236.303 38.795 C 236.217 38.934,239.586 39.000,246.788 39.000 L 257.400 39.000 257.400 36.900 L 257.400 34.800 251.005 34.800 L 244.609 34.800 245.975 32.850 L 247.341 30.900 252.370 30.847 L 257.400 30.793 257.400 28.597 L 257.400 26.400 254.000 26.400 C 252.130 26.400,250.600 26.361,250.600 26.314 C 250.600 26.267,251.860 24.425,253.400 22.221 C 254.940 20.017,256.200 18.166,256.200 18.107 C 256.200 18.048,254.990 18.000,253.510 18.000 L 250.820 18.000 250.339 18.650 M259.000 28.500 L 259.000 39.000 261.198 39.000 L 263.395 39.000 263.448 31.790 L 263.500 24.580 268.502 31.740 L 273.505 38.900 276.252 38.956 C 277.764 38.986,279.000 38.960,279.000 38.897 C 279.000 38.834,277.351 36.424,275.336 33.541 C 273.320 30.659,270.712 26.927,269.540 25.250 L 267.409 22.200 271.604 22.200 L 275.800 22.200 275.800 26.400 L 275.800 30.600 278.000 30.600 L 280.200 30.600 280.200 24.300 L 280.200 18.000 269.600 18.000 L 259.000 18.000 259.000 28.500 M281.800 28.500 L 281.800 39.000 284.000 39.000 L 286.200 39.000 286.200 30.600 L 286.200 22.200 288.200 22.200 L 290.200 22.200 290.200 24.300 L 290.200 26.400 292.400 26.400 L 294.600 26.400 294.600 22.200 L 294.600 18.000 288.200 18.000 L 281.800 18.000 281.800 28.500 M298.600 28.500 L 298.600 39.000 300.800 39.000 L 303.000 39.000 303.000 28.500 L 303.000 18.000 300.800 18.000 L 298.600 18.000 298.600 28.500 M304.603 18.050 C 304.605 18.078,307.871 22.780,311.861 28.500 L 319.116 38.900 321.877 38.956 C 323.542 38.989,324.610 38.937,324.569 38.823 C 324.531 38.720,321.260 33.994,317.300 28.323 L 310.100 18.010 307.350 18.005 C 305.838 18.002,304.601 18.023,304.603 18.050 M326.400 28.500 L 326.400 39.000 328.600 39.000 L 330.800 39.000 330.800 30.600 L 330.800 22.200 332.800 22.200 L 334.800 22.200 334.800 26.400 L 334.800 30.600 337.000 30.600 L 339.200 30.600 339.200 24.300 L 339.200 18.000 332.800 18.000 L 326.400 18.000 326.400 28.500 M343.200 26.400 L 343.200 34.800 339.000 34.800 L 334.800 34.800 334.800 36.900 L 334.800 39.000 341.200 39.000 L 347.600 39.000 347.600 28.500 L 347.600 18.000 345.400 18.000 L 343.200 18.000 343.200 26.400 M365.959 19.443 L 365.900 20.887 357.559 26.693 L 349.218 32.500 349.209 35.750 L 349.200 39.000 351.400 39.000 L 353.600 39.000 353.600 37.009 L 353.600 35.018 359.750 30.728 L 365.900 26.438 365.953 32.719 L 366.006 39.000 368.203 39.000 L 370.400 39.000 370.400 28.500 L 370.400 18.000 368.209 18.000 L 366.018 18.000 365.959 19.443 M372.000 20.100 L 372.000 22.200 374.200 22.200 L 376.400 22.200 376.400 20.100 L 376.400 18.000 374.200 18.000 L 372.000 18.000 372.000 20.100 M380.400 20.100 L 380.400 22.200 384.600 22.200 L 388.800 22.200 388.800 28.500 L 388.800 34.800 384.600 34.800 L 380.400 34.800 380.400 36.900 L 380.400 39.000 386.800 39.000 L 393.200 39.000 393.200 28.500 L 393.200 18.000 386.800 18.000 L 380.400 18.000 380.400 20.100 M30.691 28.324 C 31.008 28.446,31.600 29.390,31.600 29.775 C 31.600 30.259,30.544 31.200,30.000 31.200 C 29.456 31.200,28.400 30.259,28.400 29.775 C 28.400 28.699,29.633 27.918,30.691 28.324 M24.467 30.788 C 27.055 31.772,26.873 33.536,23.711 38.100 C 21.245 41.661,21.379 41.526,20.717 41.093 C 20.098 40.687,19.877 41.075,22.748 37.523 C 25.692 33.879,25.917 33.287,24.787 32.156 C 24.064 31.434,22.954 31.444,18.383 32.217 C 17.017 32.448,15.810 32.651,15.700 32.669 C 15.590 32.686,15.500 32.385,15.500 32.000 L 15.500 31.301 16.700 31.153 C 17.952 30.999,21.963 30.677,23.237 30.628 C 23.642 30.613,24.196 30.684,24.467 30.788 M41.800 31.017 C 43.065 31.127,44.218 31.258,44.363 31.307 C 44.671 31.413,44.611 32.717,44.300 32.669 C 44.190 32.651,42.983 32.448,41.617 32.217 C 37.046 31.444,35.936 31.434,35.213 32.156 C 34.083 33.287,34.308 33.879,37.252 37.523 C 40.123 41.075,39.902 40.687,39.283 41.093 C 38.621 41.526,38.755 41.661,36.289 38.100 C 33.388 33.913,33.152 33.113,34.388 31.646 C 35.345 30.510,35.662 30.483,41.800 31.017 M290.200 34.800 L 290.200 39.000 292.400 39.000 L 294.600 39.000 294.600 34.800 L 294.600 30.600 292.400 30.600 L 290.200 30.600 290.200 34.800 M31.737 35.021 C 32.180 35.426,35.803 42.496,35.799 42.948 C 35.798 43.032,35.533 43.251,35.209 43.435 L 34.621 43.769 34.281 42.835 C 32.171 37.046,31.591 35.860,30.688 35.482 C 28.936 34.750,28.350 35.617,25.719 42.835 L 25.379 43.769 24.791 43.435 C 24.467 43.251,24.202 43.033,24.201 42.952 C 24.198 42.590,27.658 35.663,28.056 35.234 C 28.971 34.248,30.776 34.144,31.737 35.021 M57.200 36.900 L 57.200 39.000 59.400 39.000 L 61.600 39.000 61.600 36.900 L 61.600 34.800 59.400 34.800 L 57.200 34.800 57.200 36.900 M123.800 36.900 L 123.800 39.000 126.000 39.000 L 128.200 39.000 128.200 36.900 L 128.200 34.800 126.000 34.800 L 123.800 34.800 123.800 36.900 M304.600 36.900 L 304.600 39.000 306.800 39.000 L 309.000 39.000 309.000 36.900 L 309.000 34.800 306.800 34.800 L 304.600 34.800 304.600 36.900 M372.000 36.900 L 372.000 39.000 374.200 39.000 L 376.400 39.000 376.400 36.900 L 376.400 34.800 374.200 34.800 L 372.000 34.800 372.000 36.900 " stroke="none" fill="#000000" fill-rule="evenodd"></path></g></svg>