<svg id="svg" xmlns="http://www.w3.org/2000/svg" xmlns:xlink="http://www.w3.org/1999/xlink" width="400" height="30" viewBox="0, 0, 400,30"><g id="svgg"><path id="path0" d="M14.602 1.748 C 14.416 1.940,14.104 2.148,13.907 2.212 C 11.959 2.842,10.600 4.627,10.600 6.557 L 10.600 7.196 9.975 6.856 C 8.376 5.984,6.510 6.167,4.900 7.353 C 4.487 7.657,3.981 7.956,3.774 8.019 C 3.407 8.129,3.399 8.142,3.470 8.491 C 3.557 8.913,3.555 9.073,3.454 10.200 C 3.291 12.014,4.149 13.696,5.682 14.571 L 6.202 14.869 5.805 15.048 C 4.308 15.723,3.273 17.698,3.453 19.536 C 3.556 20.596,3.558 20.779,3.470 21.209 C 3.398 21.563,3.402 21.569,3.820 21.694 C 4.052 21.764,4.495 22.015,4.804 22.253 C 6.418 23.495,8.243 23.711,9.925 22.860 L 10.600 22.518 10.600 23.162 C 10.600 24.982,11.722 26.543,13.600 27.337 C 13.957 27.488,14.419 27.746,14.625 27.911 L 15.000 28.209 15.376 27.908 C 15.582 27.742,16.041 27.488,16.395 27.344 C 18.239 26.595,19.400 24.979,19.400 23.162 L 19.400 22.518 20.075 22.860 C 21.757 23.711,23.582 23.495,25.196 22.253 C 25.505 22.015,25.948 21.764,26.180 21.694 C 26.598 21.569,26.602 21.563,26.530 21.209 C 26.442 20.779,26.444 20.596,26.547 19.536 C 26.727 17.698,25.692 15.723,24.195 15.048 L 23.798 14.869 24.310 14.576 C 25.843 13.700,26.708 12.007,26.546 10.200 C 26.445 9.073,26.443 8.913,26.530 8.491 C 26.601 8.142,26.593 8.129,26.226 8.019 C 26.019 7.956,25.513 7.657,25.100 7.353 C 23.490 6.167,21.624 5.984,20.025 6.856 L 19.400 7.196 19.400 6.566 C 19.400 4.620,18.052 2.846,16.093 2.212 C 15.896 2.148,15.584 1.940,15.398 1.748 C 15.213 1.557,15.033 1.400,15.000 1.400 C 14.967 1.400,14.787 1.557,14.602 1.748 M384.602 1.748 C 384.416 1.940,384.104 2.148,383.907 2.212 C 381.959 2.842,380.600 4.627,380.600 6.557 L 380.600 7.196 379.975 6.856 C 378.376 5.984,376.510 6.167,374.900 7.353 C 374.488 7.657,373.981 7.956,373.774 8.019 C 373.407 8.129,373.399 8.142,373.470 8.491 C 373.557 8.913,373.555 9.073,373.454 10.200 C 373.291 12.014,374.149 13.696,375.682 14.571 L 376.202 14.869 375.805 15.048 C 374.308 15.723,373.273 17.698,373.453 19.536 C 373.556 20.596,373.558 20.779,373.470 21.209 C 373.398 21.563,373.402 21.569,373.820 21.694 C 374.052 21.764,374.495 22.015,374.804 22.253 C 376.418 23.495,378.243 23.711,379.925 22.860 L 380.600 22.518 380.600 23.162 C 380.600 24.982,381.722 26.543,383.600 27.337 C 383.957 27.488,384.420 27.747,384.627 27.913 L 385.005 28.213 385.399 27.901 C 385.615 27.729,386.069 27.477,386.406 27.340 C 388.193 26.614,389.275 25.185,389.375 23.417 L 389.426 22.532 390.088 22.867 C 391.757 23.711,393.588 23.491,395.196 22.253 C 395.505 22.015,395.951 21.763,396.188 21.692 C 396.610 21.565,396.616 21.557,396.553 21.207 C 396.480 20.797,396.480 20.728,396.560 19.264 C 396.599 18.536,396.583 18.143,396.509 18.069 C 396.449 18.009,396.400 17.890,396.400 17.805 C 396.400 17.098,395.093 15.451,394.221 15.059 L 393.798 14.869 394.318 14.571 C 395.836 13.704,396.678 12.094,396.559 10.286 C 396.478 9.053,396.478 8.914,396.553 8.493 C 396.615 8.149,396.605 8.133,396.234 8.021 C 396.023 7.957,395.513 7.657,395.100 7.353 C 393.496 6.171,391.624 5.984,390.039 6.848 L 389.428 7.181 389.373 6.259 C 389.264 4.424,387.950 2.802,386.093 2.210 C 385.896 2.148,385.584 1.940,385.398 1.748 C 385.213 1.557,385.033 1.400,385.000 1.400 C 384.967 1.400,384.787 1.557,384.602 1.748 M32.217 4.693 C 32.235 4.745,35.513 9.469,39.500 15.191 L 46.750 25.596 49.425 25.598 C 50.896 25.599,52.100 25.578,52.100 25.551 C 52.100 25.524,49.490 21.764,46.300 17.197 C 43.110 12.629,40.500 8.871,40.500 8.846 C 40.500 8.821,42.390 8.800,44.700 8.800 L 48.900 8.800 48.900 13.000 L 48.900 17.200 51.050 17.200 L 53.200 17.200 53.200 10.900 L 53.200 4.600 42.692 4.600 C 36.218 4.600,32.196 4.636,32.217 4.693 M71.678 6.063 L 71.650 7.527 63.327 13.338 L 55.004 19.150 55.002 22.375 L 55.000 25.600 57.098 25.600 L 59.196 25.600 59.223 23.587 L 59.250 21.574 65.450 17.251 L 71.650 12.928 71.676 19.264 L 71.701 25.600 73.851 25.600 L 76.000 25.600 76.000 15.100 L 76.000 4.600 73.853 4.600 L 71.705 4.600 71.678 6.063 M77.800 15.100 L 77.800 25.600 80.445 25.600 L 83.090 25.600 83.329 25.275 C 83.460 25.096,86.101 21.316,89.198 16.875 L 94.828 8.800 98.914 8.800 L 103.000 8.800 103.000 6.700 L 103.000 4.600 97.675 4.602 L 92.350 4.604 87.200 11.989 L 82.050 19.374 82.024 11.987 L 81.999 4.600 79.899 4.600 L 77.800 4.600 77.800 15.100 M104.700 12.034 L 104.700 19.469 109.099 22.534 L 113.497 25.600 119.599 25.600 L 125.700 25.600 125.700 15.100 L 125.700 4.600 123.550 4.600 L 121.400 4.600 121.400 13.000 L 121.400 21.400 118.308 21.400 L 115.216 21.400 112.062 19.225 L 108.908 17.050 108.904 10.825 L 108.900 4.600 106.800 4.600 L 104.700 4.600 104.700 12.034 M127.500 15.100 L 127.500 25.600 129.599 25.600 L 131.699 25.600 131.724 18.225 L 131.750 10.851 136.900 18.224 L 142.050 25.596 144.725 25.598 C 146.196 25.599,147.400 25.578,147.400 25.552 C 147.400 25.525,147.172 25.176,146.893 24.777 C 146.615 24.377,146.231 23.825,146.041 23.550 C 145.851 23.275,145.550 22.840,145.373 22.583 C 145.195 22.326,142.980 19.158,140.450 15.543 C 137.920 11.927,135.835 8.932,135.817 8.885 C 135.798 8.838,137.677 8.800,139.992 8.800 L 144.200 8.800 144.200 13.000 L 144.200 17.200 146.350 17.200 L 148.500 17.200 148.500 10.900 L 148.500 4.600 138.000 4.600 L 127.500 4.600 127.500 15.100 M166.978 6.063 L 166.950 7.527 158.627 13.338 L 150.304 19.150 150.302 22.375 L 150.300 25.600 152.398 25.600 L 154.496 25.600 154.523 23.587 L 154.550 21.574 160.750 17.251 L 166.950 12.928 166.976 19.264 L 167.001 25.600 169.151 25.600 L 171.300 25.600 171.300 15.100 L 171.300 4.600 169.153 4.600 L 167.005 4.600 166.978 6.063 M184.200 10.900 L 184.200 17.200 186.300 17.200 L 188.400 17.200 188.400 10.900 L 188.400 4.600 186.300 4.600 L 184.200 4.600 184.200 10.900 M194.600 13.000 L 194.600 21.400 189.400 21.400 L 184.200 21.400 184.200 23.500 L 184.200 25.600 196.800 25.600 L 209.400 25.600 209.400 23.500 L 209.400 21.400 204.150 21.400 L 198.900 21.400 198.900 13.000 L 198.900 4.600 196.750 4.600 L 194.600 4.600 194.600 13.000 M205.100 10.900 L 205.100 17.200 207.250 17.200 L 209.400 17.200 209.400 10.900 L 209.400 4.600 207.250 4.600 L 205.100 4.600 205.100 10.900 M211.200 6.700 L 211.200 8.800 213.300 8.800 L 215.400 8.800 215.400 6.700 L 215.400 4.600 213.300 4.600 L 211.200 4.600 211.200 6.700 M218.500 15.009 C 214.513 20.732,211.235 25.456,211.217 25.507 C 211.196 25.564,215.245 25.600,221.692 25.600 L 232.200 25.600 232.200 23.500 L 232.200 21.400 225.850 21.400 C 222.357 21.400,219.500 21.379,219.500 21.353 C 219.500 21.327,220.122 20.415,220.883 19.328 L 222.266 17.350 227.233 17.324 L 232.200 17.298 232.200 15.149 L 232.200 13.000 228.753 13.000 L 225.305 13.000 225.883 12.175 C 226.201 11.721,226.628 11.114,226.831 10.825 C 227.034 10.536,227.357 10.075,227.550 9.800 C 227.743 9.525,228.050 9.086,228.233 8.825 C 228.416 8.564,228.828 7.968,229.148 7.500 C 229.469 7.033,230.039 6.214,230.415 5.681 C 230.792 5.149,231.100 4.687,231.100 4.656 C 231.100 4.625,229.896 4.601,228.425 4.602 L 225.750 4.604 218.500 15.009 M234.000 15.100 L 234.000 25.600 236.099 25.600 L 238.199 25.600 238.224 18.225 L 238.250 10.851 243.400 18.224 L 248.550 25.596 251.225 25.598 C 252.696 25.599,253.900 25.578,253.900 25.550 C 253.900 25.512,250.917 21.209,247.998 17.038 C 247.917 16.922,247.668 16.562,247.445 16.238 C 247.222 15.915,246.873 15.414,246.670 15.125 C 246.466 14.836,246.143 14.375,245.950 14.100 C 245.757 13.825,245.433 13.364,245.230 13.075 C 243.692 10.895,242.300 8.886,242.300 8.847 C 242.300 8.821,244.190 8.800,246.500 8.800 L 250.700 8.800 250.700 13.000 L 250.700 17.200 252.850 17.200 L 255.000 17.200 255.000 10.900 L 255.000 4.600 244.500 4.600 L 234.000 4.600 234.000 15.100 M256.800 15.100 L 256.800 25.600 258.900 25.600 L 261.000 25.600 261.000 17.200 L 261.000 8.800 263.050 8.800 L 265.100 8.800 265.100 10.900 L 265.100 13.000 267.250 13.000 L 269.400 13.000 269.400 8.800 L 269.400 4.600 263.100 4.600 L 256.800 4.600 256.800 15.100 M273.500 15.100 L 273.500 25.600 275.650 25.600 L 277.800 25.600 277.800 15.100 L 277.800 4.600 275.650 4.600 L 273.500 4.600 273.500 15.100 M279.617 4.693 C 279.635 4.745,282.913 9.469,286.900 15.191 L 294.150 25.596 296.825 25.598 C 298.296 25.599,299.500 25.579,299.500 25.553 C 299.500 25.500,298.780 24.453,296.773 21.589 C 296.595 21.336,296.268 20.863,296.045 20.539 C 295.822 20.215,295.464 19.703,295.249 19.400 C 294.821 18.797,286.404 6.741,285.877 5.976 C 285.697 5.715,285.398 5.298,285.212 5.051 L 284.873 4.600 282.228 4.600 C 280.631 4.600,279.597 4.637,279.617 4.693 M301.300 15.100 L 301.300 25.600 303.400 25.600 L 305.500 25.600 305.500 17.200 L 305.500 8.800 307.550 8.800 L 309.600 8.800 309.600 13.000 L 309.600 17.200 311.750 17.200 L 313.900 17.200 313.900 10.900 L 313.900 4.600 307.600 4.600 L 301.300 4.600 301.300 15.100 M318.000 13.000 L 318.000 21.400 313.800 21.400 L 309.600 21.400 309.600 23.500 L 309.600 25.600 315.950 25.600 L 322.300 25.600 322.300 15.100 L 322.300 4.600 320.150 4.600 L 318.000 4.600 318.000 13.000 M340.778 6.063 L 340.750 7.527 332.427 13.338 L 324.104 19.150 324.102 22.375 L 324.100 25.600 326.198 25.600 L 328.296 25.600 328.323 23.588 L 328.350 21.576 334.550 17.253 L 340.750 12.929 340.776 19.265 L 340.801 25.600 343.001 25.600 L 345.200 25.600 345.200 15.100 L 345.200 4.600 343.003 4.600 L 340.805 4.600 340.778 6.063 M346.900 6.700 L 346.900 8.800 349.000 8.800 L 351.100 8.800 351.100 6.700 L 351.100 4.600 349.000 4.600 L 346.900 4.600 346.900 6.700 M355.200 6.700 L 355.200 8.800 359.400 8.800 L 363.600 8.800 363.600 15.100 L 363.600 21.400 359.400 21.400 L 355.200 21.400 355.200 23.500 L 355.200 25.600 361.550 25.600 L 367.900 25.600 367.900 15.100 L 367.900 4.600 361.550 4.600 L 355.200 4.600 355.200 6.700 M12.960 8.550 C 13.753 10.974,14.358 12.000,14.995 12.000 C 15.649 12.000,15.915 11.594,16.751 9.325 C 17.373 7.634,17.279 7.784,17.611 7.956 C 17.998 8.156,18.015 8.096,16.970 10.199 C 15.938 12.274,15.784 12.450,15.000 12.450 C 14.216 12.450,14.062 12.274,13.030 10.199 C 11.989 8.104,12.004 8.157,12.375 7.962 C 12.696 7.794,12.722 7.821,12.960 8.550 M382.960 8.550 C 383.956 11.598,384.823 12.640,385.630 11.760 C 385.912 11.451,386.900 9.286,386.900 8.975 C 386.900 8.938,386.993 8.659,387.107 8.355 L 387.314 7.802 387.607 7.954 C 387.999 8.156,388.016 8.094,386.970 10.199 C 385.938 12.274,385.784 12.450,385.000 12.450 C 384.137 12.450,384.161 12.483,382.407 8.929 C 382.033 8.172,382.032 8.142,382.375 7.962 C 382.696 7.794,382.722 7.821,382.960 8.550 M11.949 10.778 C 13.267 12.725,13.385 13.071,12.934 13.675 C 12.389 14.404,12.047 14.447,9.000 14.165 L 7.750 14.050 7.717 13.763 C 7.672 13.369,7.783 13.294,8.250 13.403 C 9.123 13.606,11.649 13.913,11.960 13.855 C 13.236 13.615,12.884 12.623,10.556 9.896 L 10.090 9.350 10.306 9.175 C 10.658 8.890,10.699 8.930,11.949 10.778 M19.694 9.175 L 19.910 9.350 19.444 9.896 C 17.116 12.623,16.764 13.615,18.040 13.855 C 18.351 13.913,20.877 13.606,21.750 13.403 C 22.217 13.294,22.328 13.369,22.283 13.763 L 22.250 14.050 21.000 14.165 C 17.953 14.447,17.611 14.404,17.066 13.675 C 16.615 13.071,16.733 12.725,18.051 10.778 C 19.301 8.930,19.342 8.890,19.694 9.175 M381.949 10.778 C 383.267 12.725,383.385 13.071,382.934 13.675 C 382.389 14.404,382.047 14.447,379.000 14.165 L 377.750 14.050 377.717 13.763 C 377.672 13.369,377.783 13.294,378.250 13.403 C 379.101 13.600,381.651 13.915,381.938 13.857 C 383.217 13.602,382.785 12.378,380.525 9.854 L 380.081 9.357 380.302 9.179 C 380.659 8.890,380.696 8.926,381.949 10.778 M389.694 9.175 L 389.910 9.350 389.444 9.896 C 387.116 12.623,386.764 13.615,388.040 13.855 C 388.351 13.913,390.877 13.606,391.750 13.403 C 392.217 13.294,392.328 13.369,392.283 13.763 C 392.245 14.090,392.225 14.094,389.450 14.284 C 387.868 14.392,387.620 14.340,387.170 13.806 C 386.620 13.152,386.735 12.734,387.962 10.920 C 389.395 8.800,389.322 8.874,389.694 9.175 M15.346 14.162 C 15.504 14.223,15.800 14.695,15.800 14.887 C 15.800 15.130,15.272 15.600,15.000 15.600 C 14.728 15.600,14.200 15.130,14.200 14.887 C 14.200 14.350,14.817 13.959,15.346 14.162 M385.346 14.162 C 385.504 14.223,385.800 14.695,385.800 14.887 C 385.800 15.130,385.272 15.600,385.000 15.600 C 384.728 15.600,384.200 15.130,384.200 14.887 C 384.200 14.350,384.817 13.959,385.346 14.162 M12.234 15.394 C 13.528 15.886,13.436 16.768,11.856 19.050 C 10.622 20.830,10.689 20.763,10.358 20.546 C 10.049 20.344,9.939 20.538,11.374 18.761 C 12.846 16.939,12.959 16.643,12.393 16.078 C 12.032 15.717,11.477 15.722,9.192 16.109 C 8.509 16.224,7.905 16.326,7.850 16.334 C 7.795 16.343,7.750 16.193,7.750 16.000 L 7.750 15.650 8.350 15.576 C 8.976 15.499,10.982 15.338,11.618 15.314 C 11.821 15.306,12.098 15.342,12.234 15.394 M20.900 15.509 C 21.532 15.564,22.109 15.629,22.181 15.654 C 22.335 15.706,22.305 16.359,22.150 16.334 C 22.095 16.326,21.491 16.224,20.808 16.109 C 18.523 15.722,17.968 15.717,17.607 16.078 C 17.041 16.643,17.154 16.939,18.626 18.761 C 20.061 20.538,19.951 20.344,19.642 20.546 C 19.311 20.763,19.378 20.830,18.144 19.050 C 16.694 16.956,16.576 16.556,17.194 15.823 C 17.673 15.255,17.831 15.241,20.900 15.509 M382.234 15.394 C 383.528 15.886,383.436 16.768,381.856 19.050 C 380.624 20.828,380.689 20.763,380.363 20.549 C 380.071 20.358,380.066 20.372,380.720 19.592 C 382.819 17.089,383.044 16.607,382.377 16.046 C 381.995 15.725,381.392 15.737,379.192 16.109 C 378.509 16.224,377.905 16.326,377.850 16.334 C 377.795 16.343,377.750 16.193,377.750 16.000 L 377.750 15.650 378.350 15.576 C 378.976 15.499,380.982 15.338,381.618 15.314 C 381.821 15.306,382.098 15.342,382.234 15.394 M390.900 15.509 C 391.533 15.564,392.109 15.629,392.181 15.654 C 392.335 15.706,392.305 16.359,392.150 16.334 C 392.095 16.326,391.491 16.224,390.808 16.109 C 388.523 15.722,387.968 15.717,387.607 16.078 C 387.041 16.643,387.154 16.939,388.626 18.761 C 389.189 19.458,389.708 20.106,389.778 20.201 C 390.048 20.563,389.417 20.795,389.130 20.439 C 387.288 18.157,386.624 16.667,387.125 15.932 C 387.587 15.255,387.762 15.235,390.900 15.509 M15.869 17.511 C 16.090 17.713,17.901 21.248,17.899 21.474 C 17.899 21.516,17.766 21.625,17.605 21.717 L 17.311 21.885 17.140 21.417 C 16.085 18.523,15.796 17.930,15.344 17.741 C 14.468 17.375,14.175 17.809,12.860 21.417 L 12.689 21.885 12.395 21.717 C 12.234 21.625,12.101 21.517,12.101 21.476 C 12.099 21.295,13.829 17.832,14.028 17.617 C 14.486 17.124,15.388 17.072,15.869 17.511 M265.100 21.400 L 265.100 25.600 267.250 25.600 L 269.400 25.600 269.400 21.400 L 269.400 17.200 267.250 17.200 L 265.100 17.200 265.100 21.400 M385.869 17.511 C 386.090 17.713,387.901 21.248,387.899 21.474 C 387.899 21.516,387.766 21.625,387.604 21.718 L 387.309 21.886 387.104 21.339 C 386.992 21.038,386.900 20.762,386.900 20.725 C 386.900 20.612,386.192 18.879,385.950 18.400 C 385.474 17.459,384.554 17.411,384.098 18.303 C 383.907 18.678,383.321 20.152,382.860 21.417 L 382.689 21.885 382.395 21.717 C 382.034 21.512,382.034 21.509,382.383 20.814 C 382.538 20.504,382.926 19.710,383.244 19.050 C 384.052 17.374,384.261 17.174,385.128 17.237 C 385.459 17.261,385.687 17.345,385.869 17.511 M32.200 23.500 L 32.200 25.600 34.300 25.600 L 36.400 25.600 36.400 23.500 L 36.400 21.400 34.300 21.400 L 32.200 21.400 32.200 23.500 M98.700 23.500 L 98.700 25.600 100.850 25.600 L 103.000 25.600 103.000 23.500 L 103.000 21.400 100.850 21.400 L 98.700 21.400 98.700 23.500 M279.600 23.500 L 279.600 25.600 281.700 25.600 L 283.800 25.600 283.800 23.500 L 283.800 21.400 281.700 21.400 L 279.600 21.400 279.600 23.500 M346.900 23.500 L 346.900 25.600 349.000 25.600 L 351.100 25.600 351.100 23.500 L 351.100 21.400 349.000 21.400 L 346.900 21.400 346.900 23.500 " stroke="none" fill="#000000" fill-rule="evenodd"></path></g></svg>